<svg xmlns="http://www.w3.org/2000/svg" xmlns:xlink="http://www.w3.org/1999/xlink" width="14.61" height="16.458" viewBox="0 0 14.61 16.458">
  <defs>
    <clipPath id="clip-path">
      <path id="Path_2640" data-name="Path 2640" d="M55.466,25.876a.258.258,0,0,0,.023.018,1.684,1.684,0,0,1,.585.619c.262.458.527.914.791,1.37q.564.976,1.127,1.951a1.575,1.575,0,0,1,.191,1.175A1.614,1.614,0,0,1,56.6,32.295c-1.308.006-2.615,0-3.923,0a1.5,1.5,0,0,1-.506-.084c-.1-.035-.194-.079-.294-.12L50.048,35.26l.017.014.039.022a2.584,2.584,0,0,0,1.239.319q3.292,0,6.585,0a2.535,2.535,0,0,0,.479-.047,2.571,2.571,0,0,0,1.79-1.261c.46-.775.907-1.558,1.352-2.341a2.593,2.593,0,0,0,.328-1.6,2.74,2.74,0,0,0-.365-1.073l-3.223-5.58a2.713,2.713,0,0,0-.936-.976L57.3,22.7l-1.833,3.175" transform="translate(-50.048 -22.701)" fill="#FF5E00"/>
    </clipPath>
    <clipPath id="clip-path-2">
      <path id="Path_2654" data-name="Path 2654" d="M36.336,0a2.731,2.731,0,0,0-.529.051,2.584,2.584,0,0,0-1.786,1.284c-.443.755-.877,1.515-1.314,2.273a2.659,2.659,0,0,0-.357,1.133A2.613,2.613,0,0,0,32.7,6.278q1.63,2.83,3.266,5.658a2.657,2.657,0,0,0,.9.939l.067.039L38.77,9.738a.269.269,0,0,0-.022-.017,1.657,1.657,0,0,1-.583-.613c-.123-.215-.248-.429-.372-.644L36.248,5.786a1.586,1.586,0,0,1-.2-1.142,1.619,1.619,0,0,1,1.584-1.323q1.346,0,2.692,0h1.248a1.459,1.459,0,0,1,.474.076c.106.036.208.083.317.126l1.83-3.17L44.142.324A2.658,2.658,0,0,0,42.854,0H40.01q-1.837,0-3.674,0" transform="translate(-32.342)" fill="#FF5E00"/>
    </clipPath>
  </defs>
  <g id="Group_790" data-name="Group 790" transform="translate(-116.916 -34.957)">
    <g id="Group_772" data-name="Group 772" transform="translate(119.679 38.5)">
      <g id="Group_757" data-name="Group 757" clip-path="url(#clip-path)">
        <rect id="Rectangle_3171" data-name="Rectangle 3171" width="17.132" height="16.757" transform="translate(-5.593 9.687) rotate(-60)" fill="#FF5E00"/>
      </g>
    </g>
    <g id="Group_773" data-name="Group 773" transform="translate(116.916 34.957)" clip-path="url(#clip-path-2)">
      <rect id="Rectangle_3187" data-name="Rectangle 3187" width="17.124" height="16.746" transform="matrix(0.5, -0.866, 0.866, 0.5, -5.626, 9.686)" fill="#FF5E00"/>
    </g>
  </g>
</svg>
