<svg xmlns="http://www.w3.org/2000/svg" xmlns:xlink="http://www.w3.org/1999/xlink" width="196.015" height="42.827" viewBox="0 0 196.015 42.827">
  <defs>
    <clipPath id="clip-path">
      <rect id="Rectangle_3346" data-name="Rectangle 3346" width="196.015" height="42.827" fill="none"/>
    </clipPath>
  </defs>
  <g id="Group_879" data-name="Group 879" transform="translate(0 0)">
    <g id="Group_878" data-name="Group 878" transform="translate(0 0)" clip-path="url(#clip-path)">
      <path id="Path_2793" data-name="Path 2793" d="M9.051,44.284l4.76-8.245c.261.107.508.221.764.312a3.9,3.9,0,0,0,1.318.22c3.4,0,6.805.013,10.208,0a4.2,4.2,0,0,0,4.117-3.344,4.1,4.1,0,0,0-.5-3.058q-1.464-2.54-2.932-5.077c-.687-1.189-1.376-2.374-2.057-3.565a4.387,4.387,0,0,0-1.523-1.61c-.016-.01-.029-.022-.061-.046L27.919,11.6c.052.029.1.053.141.08a7.056,7.056,0,0,1,2.435,2.539q4.193,7.261,8.386,14.521a7.122,7.122,0,0,1,.95,2.793,6.747,6.747,0,0,1-.854,4.172c-1.16,2.038-2.322,4.075-3.518,6.091a6.917,6.917,0,0,1-5.905,3.4q-8.567.012-17.134,0a6.72,6.72,0,0,1-3.224-.83c-.034-.018-.068-.037-.1-.056a.4.4,0,0,1-.044-.036" transform="translate(-1.859 -2.384)" fill="#ff3600"/>
      <path id="Path_2794" data-name="Path 2794" d="M30.828.917,26.067,9.165c-.281-.113-.548-.233-.824-.327a3.8,3.8,0,0,0-1.234-.2c-3.417,0-6.835-.006-10.252,0a4.214,4.214,0,0,0-4.121,3.444,4.128,4.128,0,0,0,.528,2.971l4.022,6.967c.323.559.648,1.116.968,1.677A4.315,4.315,0,0,0,16.67,25.3a.661.661,0,0,1,.057.044L11.957,33.6c-.064-.037-.121-.068-.176-.1A6.914,6.914,0,0,1,9.427,31.06Q5.172,23.7.928,16.337a6.8,6.8,0,0,1-.907-3.994A6.92,6.92,0,0,1,.952,9.4C2.088,7.422,3.218,5.445,4.37,3.481A6.725,6.725,0,0,1,9.017.139,7.136,7.136,0,0,1,10.393.006Q18.873-.007,27.354,0A6.921,6.921,0,0,1,30.7.843c.038.021.074.044.124.074" transform="translate(0 0)" fill="#fb752f"/>
      <path id="Path_2795" data-name="Path 2795" d="M69.673,39.976a2.653,2.653,0,0,1-1.862-.74,2.3,2.3,0,0,1-.8-1.743V19.284a3.652,3.652,0,0,1,3.843-3.843h5.97a8.707,8.707,0,0,1,5.883,2.01,6.676,6.676,0,0,1,2.334,5.32,7.8,7.8,0,0,1-2.305,5.853,8.039,8.039,0,0,1-5.853,2.246H73.4a1.045,1.045,0,0,0-1.182,1.182l.118,5.44a2.3,2.3,0,0,1-.8,1.743,2.652,2.652,0,0,1-1.862.74M73.1,26.142h3.133q3.666,0,3.666-3.015,0-2.956-3.429-2.957H73.1a.784.784,0,0,0-.887.888v4.2a.784.784,0,0,0,.887.888" transform="translate(-13.766 -3.172)" fill="#fcfcfc"/>
      <path id="Path_2796" data-name="Path 2796" d="M94.993,39.368a2.666,2.666,0,0,1-1.921-.769,2.52,2.52,0,0,1-.8-1.892,3.37,3.37,0,0,1,1.182-2.482l4.67-4.315a23.209,23.209,0,0,0,3.606-3.991,5.806,5.806,0,0,0,1.005-3.163,3.017,3.017,0,0,0-.8-2.187,2.86,2.86,0,0,0-2.158-.828,3,3,0,0,0-2.128.769,3.908,3.908,0,0,0-1.123,2.068,2.446,2.446,0,0,1-.858,1.448,2.551,2.551,0,0,1-1.685.562,2.4,2.4,0,0,1-1.773-.709,2.14,2.14,0,0,1-.65-1.714,6.681,6.681,0,0,1,2.512-5.115,9.1,9.1,0,0,1,6-1.98,8,8,0,0,1,5.823,2.1,7.214,7.214,0,0,1,2.157,5.409,7.982,7.982,0,0,1-1.034,3.931,18.336,18.336,0,0,1-3.1,3.932l-3.31,3.311q-.948.946.414.946l5.379-.118a2.437,2.437,0,0,1,1.892.621A2.382,2.382,0,0,1,109,37a2.234,2.234,0,0,1-2.365,2.365Z" transform="translate(-18.809 -3.096)" fill="#fcfcfc"/>
      <path id="Path_2797" data-name="Path 2797" d="M119.15,39.976a2.653,2.653,0,0,1-1.862-.74,2.3,2.3,0,0,1-.8-1.743V19.284a3.652,3.652,0,0,1,3.843-3.843h5.97a8.707,8.707,0,0,1,5.883,2.01,6.676,6.676,0,0,1,2.334,5.32,7.8,7.8,0,0,1-2.305,5.853,8.039,8.039,0,0,1-5.853,2.246h-3.488a1.045,1.045,0,0,0-1.182,1.182l.118,5.44a2.3,2.3,0,0,1-.8,1.743,2.652,2.652,0,0,1-1.862.74m3.429-13.833h3.133q3.666,0,3.666-3.015,0-2.956-3.429-2.957h-3.37a.784.784,0,0,0-.887.888v4.2a.784.784,0,0,0,.887.888" transform="translate(-23.93 -3.172)" fill="#fcfcfc"/>
      <path id="Path_2798" data-name="Path 2798" d="M146.373,39.385a3.741,3.741,0,0,1-3.843-3.843V19.107a3.634,3.634,0,0,1,3.665-3.666h5.676a7.667,7.667,0,0,1,5.32,1.8,5.7,5.7,0,0,1,2.01,4.4,5.68,5.68,0,0,1-1.832,4.434,5.866,5.866,0,0,1,3.192,5.675,7.331,7.331,0,0,1-2.187,5.5,8.032,8.032,0,0,1-5.853,2.129ZM148.62,24.6h3.251a2.036,2.036,0,0,0,1.656-.71,2.357,2.357,0,0,0,.59-1.537,2.248,2.248,0,0,0-.59-1.507,2.083,2.083,0,0,0-1.656-.68H148.62a.784.784,0,0,0-.887.888v2.66a.784.784,0,0,0,.887.887m0,10.05h4.138a2.868,2.868,0,0,0,1.98-.71,2.62,2.62,0,0,0,.8-2.068,2.68,2.68,0,0,0-.768-2.07,2.851,2.851,0,0,0-2.01-.71H148.62a.784.784,0,0,0-.887.888v3.784a.783.783,0,0,0,.887.886" transform="translate(-29.28 -3.172)" fill="#fcfcfc"/>
      <path id="Path_2799" data-name="Path 2799" d="M170.934,39.442a2.832,2.832,0,0,1-1.892-.65,2.074,2.074,0,0,1-.768-1.656V15.144a2.134,2.134,0,0,1,.739-1.626,2.734,2.734,0,0,1,1.921-.679,2.55,2.55,0,0,1,1.833.679,2.242,2.242,0,0,1,.709,1.685V37.076a2.2,2.2,0,0,1-.738,1.685,2.575,2.575,0,0,1-1.8.68" transform="translate(-34.569 -2.638)" fill="#fcfcfc"/>
      <path id="Path_2800" data-name="Path 2800" d="M186.841,41.581a9.461,9.461,0,0,1-4.67-1.182,9.013,9.013,0,0,1-4.67-8.04,8.8,8.8,0,0,1,1.271-4.759,8.963,8.963,0,0,1,3.4-3.193,10.1,10.1,0,0,1,9.37,0,8.811,8.811,0,0,1,3.34,3.193,8.968,8.968,0,0,1,1.242,4.759,9.163,9.163,0,0,1-1.242,4.759,8.9,8.9,0,0,1-3.34,3.282,9.419,9.419,0,0,1-4.7,1.182m0-4.789a3.842,3.842,0,0,0,2.985-1.271,4.527,4.527,0,0,0,1.153-3.162,4.293,4.293,0,0,0-1.153-3.133,3.984,3.984,0,0,0-2.985-1.183,4.108,4.108,0,0,0-2.986,1.183,4.177,4.177,0,0,0-1.212,3.133,4.4,4.4,0,0,0,1.212,3.162,3.958,3.958,0,0,0,2.986,1.271" transform="translate(-36.464 -4.777)" fill="#fcfcfc"/>
      <path id="Path_2801" data-name="Path 2801" d="M212.2,41.582a9.916,9.916,0,0,1-4.641-1.124,8.689,8.689,0,0,1-3.458-3.251,9.557,9.557,0,0,1-1.3-5.084,8.546,8.546,0,0,1,2.66-6.474,9.561,9.561,0,0,1,6.74-2.393,13.922,13.922,0,0,1,3.133.354,6.247,6.247,0,0,1,2.66,1.3,2.241,2.241,0,0,1,.887,1.832,2.528,2.528,0,0,1-.679,1.715,2.162,2.162,0,0,1-1.684.768,2.084,2.084,0,0,1-1.183-.354,7.369,7.369,0,0,0-1.566-.65,5.936,5.936,0,0,0-1.508-.178,4.58,4.58,0,0,0-3.192,1.124,3.864,3.864,0,0,0-1.242,3.015,4.31,4.31,0,0,0,1.36,3.4,4.641,4.641,0,0,0,3.193,1.213,5.978,5.978,0,0,0,3.9-1.537,2.292,2.292,0,0,1,1.36-.532,2.1,2.1,0,0,1,1.626.768,2.6,2.6,0,0,1,.679,1.773,2.763,2.763,0,0,1-.177.916,2.626,2.626,0,0,1-.65.976,10.136,10.136,0,0,1-3.4,1.862,11.812,11.812,0,0,1-3.518.562" transform="translate(-41.661 -4.778)" fill="#fcfcfc"/>
      <path id="Path_2802" data-name="Path 2802" d="M229.265,39.442a2.832,2.832,0,0,1-1.892-.65,2.074,2.074,0,0,1-.768-1.656V15.144a2.135,2.135,0,0,1,.739-1.626,2.732,2.732,0,0,1,1.921-.679,2.551,2.551,0,0,1,1.833.679,2.245,2.245,0,0,1,.709,1.685V25.371q0,.71.414.71a1.212,1.212,0,0,0,.473-.237l5.734-4.257a2.721,2.721,0,0,1,1.538-.472,2.147,2.147,0,0,1,1.655.709,2.414,2.414,0,0,1-.532,3.725l-4.67,3.074a1.132,1.132,0,0,0-.591.887.879.879,0,0,0,.473.768l5.38,4.848a2.021,2.021,0,0,1,.71.946,3.2,3.2,0,0,1,.176,1.005,2.223,2.223,0,0,1-.738,1.655,2.462,2.462,0,0,1-3.518-.059L232.517,33a.565.565,0,0,0-.414-.178c-.2,0-.3.158-.3.474v3.783a2.2,2.2,0,0,1-.738,1.685,2.575,2.575,0,0,1-1.8.68" transform="translate(-46.551 -2.638)" fill="#fcfcfc"/>
    </g>
  </g>
</svg>
